<?xml version="1.0" encoding="utf-8"?>

<!-- Uploaded to: SVG Repo, www.svgrepo.com, Generator: SVG Repo Mixer Tools -->
<svg version="1.1" id="Icons" xmlns="http://www.w3.org/2000/svg" xmlns:xlink="http://www.w3.org/1999/xlink" 
	 viewBox="0 0 32 32" xml:space="preserve">
<style type="text/css">
	.st0{fill:none;stroke:#000000;stroke-width:2;stroke-linecap:round;stroke-linejoin:round;stroke-miterlimit:10;}
	.st1{fill:none;stroke:#000000;stroke-width:2;}
	.st2{fill:none;stroke:#000000;stroke-width:2;stroke-miterlimit:10;}
</style>
<path class="st0" d="M16,2C7.7,2,1,8,1,15.5c0,4.3,2.2,8.1,5.7,10.6l0.3,3.9c0,0.5,0.6,0.8,1,0.5l3.8-2.1c1.4,0.4,2.8,0.6,4.3,0.6
	c8.3,0,15-6,15-13.5S24.3,2,16,2z"/>
<path class="st0" d="M10.9,13.9l-3.8,5c-0.3,0.4,0.1,0.9,0.6,0.7l4.8-2.4c0.1-0.1,0.3-0.1,0.4,0l3.8,1.9c1.5,0.8,3.4,0.3,4.5-1.1
	l3.8-5c0.3-0.4-0.1-0.9-0.6-0.7l-4.8,2.4c-0.1,0.1-0.3,0.1-0.4,0l-3.8-1.9C13.8,12.1,11.9,12.5,10.9,13.9z"/>
</svg>